<svg xmlns="http://www.w3.org/2000/svg" viewBox="0 0 160 160" width="160" height="160">
  <rect x="0" y="0" width="160" height="160" rx="32" fill="#1C1C1C"/>
  <rect x="79.2808" y="26.4" width="4" height="107.2" rx="2" fill="#C8C4BC" opacity="0.25"/>
  <g transform="translate(10.0808,122.8) scale(0.11892,-0.11892)"><path d="M300 -10Q201 -10 140.5 49.0Q80 108 80 210V340Q80 442 140.5 501.0Q201 560 300 560Q366 560 415.5 533.5Q465 507 492.5 459.5Q520 412 520 349V250H177V202Q177 142 210.0 108.0Q243 74 300 74Q348 74 379.0 92.0Q410 110 416 142H515Q505 72 446.0 31.0Q387 -10 300 -10ZM177 349V323H423V349Q423 412 391.0 446.0Q359 480 300 480Q241 480 209.0 446.0Q177 412 177 349Z" fill="#D47830"/></g>
  <g transform="translate(79.2808,122.8) scale(0.11892,-0.11892)"><path d="M88 0V730H187V550L186 445H187Q194 499 232.5 529.5Q271 560 334 560Q416 560 465.0 508.0Q514 456 514 368V0H415V353Q415 412 385.0 444.0Q355 476 303 476Q249 476 218.0 442.5Q187 409 187 349V0Z" fill="#C8C4BC"/></g>
</svg>