<svg xmlns="http://www.w3.org/2000/svg" viewBox="0 0 200.70 32.76" width="200.70" height="32.76">
  <g transform="translate(-2.8800,26.28) scale(0.036,-0.036)"><path d="M300 -10Q201 -10 140.5 49.0Q80 108 80 210V340Q80 442 140.5 501.0Q201 560 300 560Q366 560 415.5 533.5Q465 507 492.5 459.5Q520 412 520 349V250H177V202Q177 142 210.0 108.0Q243 74 300 74Q348 74 379.0 92.0Q410 110 416 142H515Q505 72 446.0 31.0Q387 -10 300 -10ZM177 349V323H423V349Q423 412 391.0 446.0Q359 480 300 480Q241 480 209.0 446.0Q177 412 177 349Z" fill="#D47830"/></g>
  <g transform="translate(18.7200,26.28) scale(0.036,-0.036)"><path d="M88 0V550H186V445H187Q194 499 232.5 529.5Q271 560 334 560Q416 560 465.0 508.0Q514 456 514 368V0H415V352Q415 412 385.0 444.0Q355 476 303 476Q249 476 218.0 442.5Q187 409 187 349V0Z" fill="#D47830"/></g>
  <g transform="translate(40.3200,26.28) scale(0.036,-0.036)"><path d="M159 -180V-92H314Q359 -92 386.0 -66.5Q413 -41 413 3V49L415 144H414Q404 93 365.5 65.0Q327 37 267 37Q182 37 133.0 91.5Q84 146 84 241V354Q84 449 133.0 504.5Q182 560 267 560Q325 560 363.5 532.0Q402 504 413 455H414V550H511V2Q511 -82 458.0 -131.0Q405 -180 314 -180ZM298 120Q351 120 382.0 153.0Q413 186 413 246V349Q413 408 382.0 441.0Q351 474 298 474Q243 474 213.0 442.5Q183 411 183 357V237Q183 183 213.0 151.5Q243 120 298 120Z" fill="#D47830"/></g>
  <g transform="translate(61.9200,26.28) scale(0.036,-0.036)"><path d="M88 0V730H187V550L186 445H187Q194 499 232.5 529.5Q271 560 334 560Q416 560 465.0 508.0Q514 456 514 368V0H415V353Q415 412 385.0 444.0Q355 476 303 476Q249 476 218.0 442.5Q187 409 187 349V0Z" fill="#2A2A2A"/></g>
  <g transform="translate(83.5200,26.28) scale(0.036,-0.036)"><path d="M249 -10Q164 -10 114.5 37.5Q65 85 65 162Q65 239 116.5 286.0Q168 333 252 333H413V375Q413 476 301 476Q251 476 220.5 457.5Q190 439 188 406H90Q95 473 151.0 516.5Q207 560 301 560Q402 560 457.0 512.0Q512 464 512 377V0H415V101H413Q406 50 362.5 20.0Q319 -10 249 -10ZM275 73Q338 73 375.5 103.5Q413 134 413 187V260H261Q218 260 191.5 234.5Q165 209 165 167Q165 124 194.0 98.5Q223 73 275 73Z" fill="#2A2A2A"/></g>
  <g transform="translate(105.1200,26.28) scale(0.036,-0.036)"><path d="M299 -10Q202 -10 144.0 47.0Q86 104 86 202V550H185V202Q185 144 215.5 110.5Q246 77 299 77Q353 77 384.0 110.5Q415 144 415 202V550H514V202Q514 104 455.5 47.0Q397 -10 299 -10Z" fill="#2A2A2A"/></g>
  <g transform="translate(126.7200,26.28) scale(0.036,-0.036)"><path d="M278 -8Q184 -8 132.0 34.0Q80 76 80 152H178Q178 116 204.5 95.5Q231 75 278 75H322Q371 75 397.5 96.0Q424 117 424 155Q424 222 358 230L210 251Q151 260 119.0 299.5Q87 339 87 402Q87 476 137.0 517.0Q187 558 277 558H321Q405 558 457.0 518.0Q509 478 512 412H412Q410 440 386.0 458.5Q362 477 321 477H277Q232 477 207.5 457.0Q183 437 183 403Q183 348 238 341L377 321Q520 302 520 155Q520 77 468.5 34.5Q417 -8 322 -8Z" fill="#2A2A2A"/></g>
  <g transform="translate(148.3200,26.28) scale(0.036,-0.036)"><path d="M300 -10Q201 -10 140.5 49.0Q80 108 80 210V340Q80 442 140.5 501.0Q201 560 300 560Q366 560 415.5 533.5Q465 507 492.5 459.5Q520 412 520 349V250H177V202Q177 142 210.0 108.0Q243 74 300 74Q348 74 379.0 92.0Q410 110 416 142H515Q505 72 446.0 31.0Q387 -10 300 -10ZM177 349V323H423V349Q423 412 391.0 446.0Q359 480 300 480Q241 480 209.0 446.0Q177 412 177 349Z" fill="#2A2A2A"/></g>
  <g transform="translate(169.9200,26.28) scale(0.036,-0.036)"><path d="M88 0V550H186V445H187Q194 499 232.5 529.5Q271 560 334 560Q416 560 465.0 508.0Q514 456 514 368V0H415V352Q415 412 385.0 444.0Q355 476 303 476Q249 476 218.0 442.5Q187 409 187 349V0Z" fill="#2A2A2A"/></g>
  <g transform="translate(186.8400,26.28) scale(0.036,-0.036)"><path d="M300 -10Q262 -10 238.5 13.0Q215 36 215 72Q215 110 238.5 134.0Q262 158 300 158Q338 158 361.5 134.0Q385 110 385 72Q385 36 361.5 13.0Q338 -10 300 -10Z" fill="#D47830"/></g>
</svg>